<svg width="20" height="21" viewBox="0 0 20 21" fill="none" xmlns="http://www.w3.org/2000/svg">
<g id="vuesax/outline/eye">
<g id="eye">
<path id="Vector" d="M9.99993 13.8136C8.28441 13.8136 6.8916 12.4208 6.8916 10.7053C6.8916 8.98977 8.28441 7.59696 9.99993 7.59696C11.7155 7.59696 13.1083 8.98977 13.1083 10.7053C13.1083 12.4208 11.7155 13.8136 9.99993 13.8136ZM9.99993 7.84696C8.42379 7.84696 7.1416 9.12915 7.1416 10.7053C7.1416 12.2814 8.42379 13.5636 9.99993 13.5636C11.5761 13.5636 12.8583 12.2814 12.8583 10.7053C12.8583 9.12915 11.5761 7.84696 9.99993 7.84696Z" fill="#292D32" stroke="#292D32"/>
<path id="Vector_2" d="M2.29628 12.9361L2.29557 12.935C1.91686 12.3455 1.7124 11.5408 1.7124 10.7084C1.7124 9.87638 1.91671 9.06909 2.29604 8.47482C4.26867 5.39936 7.08387 3.68862 9.9999 3.68862C12.9161 3.68862 15.7311 5.39953 17.6952 8.47444L17.6959 8.47554C18.0746 9.06504 18.2791 9.86979 18.2791 10.7022C18.2791 11.5344 18.0747 12.3419 17.6952 12.9362C15.7311 16.0111 12.9161 17.722 9.9999 17.722C7.07513 17.722 4.26021 16.0108 2.29628 12.9361ZM9.9999 3.93862C7.09498 3.93862 4.37822 5.68232 2.51193 8.61103C2.13427 9.2005 1.96449 9.97037 1.96449 10.7053C1.96449 11.44 2.13416 12.2096 2.51156 12.799C4.37786 15.728 7.09479 17.472 9.9999 17.472C12.9048 17.472 15.6216 15.7283 17.4879 12.7995C17.8655 12.2101 18.0353 11.4402 18.0353 10.7053C18.0353 9.97061 17.8656 9.201 17.4882 8.61161C15.6219 5.68255 12.905 3.93862 9.9999 3.93862Z" fill="#292D32" stroke="#292D32"/>
</g>
</g>
</svg>
